<svg
  width="200"
  height="200"
  viewBox="0 0 200 200"
  fill="none"
  xmlns="http://www.w3.org/2000/svg"
>
  <rect width="200" height="200" fill="black" />
  <path
    d="M35.968 85.664V81.824H39.808V85.664H35.968ZM31.104 85.664V81.824H34.944V85.664H31.104ZM35.968 90.528V86.688H39.808V90.528H35.968ZM31.104 90.528V86.688H34.944V90.528H31.104ZM31.104 95.392V91.552H34.944V95.392H31.104ZM35.968 95.392V91.552H39.808V95.392H35.968ZM26.24 100.256V96.416H30.08V100.256H26.24ZM21.376 100.256V96.416H25.216V100.256H21.376ZM40.832 100.256V96.416H44.672V100.256H40.832ZM45.696 100.256V96.416H49.536V100.256H45.696ZM50.56 100.256V96.416H54.4V100.256H50.56ZM55.424 100.256V96.416H59.264V100.256H55.424ZM31.104 100.256V96.416H34.944V100.256H31.104ZM35.968 100.256V96.416H39.808V100.256H35.968ZM26.24 105.12V101.28H30.08V105.12H26.24ZM21.376 105.12V101.28H25.216V105.12H21.376ZM40.832 105.12V101.28H44.672V105.12H40.832ZM45.696 105.12V101.28H49.536V105.12H45.696ZM35.968 105.12V101.28H39.808V105.12H35.968ZM31.104 105.12V101.28H34.944V105.12H31.104ZM50.56 105.12V101.28H54.4V105.12H50.56ZM55.424 105.12V101.28H59.264V105.12H55.424ZM35.968 109.984V106.144H39.808V109.984H35.968ZM31.104 109.984V106.144H34.944V109.984H31.104ZM31.104 114.848V111.008H34.944V114.848H31.104ZM35.968 114.848V111.008H39.808V114.848H35.968ZM31.104 119.712V115.872H34.944V119.712H31.104ZM35.968 119.712V115.872H39.808V119.712H35.968ZM35.968 124.576V120.736H39.808V124.576H35.968ZM31.104 124.576V120.736H34.944V124.576H31.104ZM35.968 129.44V125.6H39.808V129.44H35.968ZM31.104 129.44V125.6H34.944V129.44H31.104ZM35.968 134.304V130.464H39.808V134.304H35.968ZM31.104 134.304V130.464H34.944V134.304H31.104ZM35.968 139.168V135.328H39.808V139.168H35.968ZM31.104 139.168V135.328H34.944V139.168H31.104ZM35.968 144.032V140.192H39.808V144.032H35.968ZM31.104 144.032V140.192H34.944V144.032H31.104ZM31.104 148.896V145.056H34.944V148.896H31.104ZM35.968 148.896V145.056H39.808V148.896H35.968ZM35.968 153.76V149.92H39.808V153.76H35.968ZM31.104 153.76V149.92H34.944V153.76H31.104ZM50.56 158.624V154.784H54.4V158.624H50.56ZM45.696 158.624V154.784H49.536V158.624H45.696ZM40.832 158.624V154.784H44.672V158.624H40.832ZM35.968 158.624V154.784H39.808V158.624H35.968ZM55.424 158.624V154.784H59.264V158.624H55.424ZM50.56 163.488V159.648H54.4V163.488H50.56ZM45.696 163.488V159.648H49.536V163.488H45.696ZM40.832 163.488V159.648H44.672V163.488H40.832ZM55.424 163.488V159.648H59.264V163.488H55.424ZM79.729 100.256V96.416H83.569V100.256H79.729ZM104.049 100.256V96.416H107.889V100.256H104.049ZM99.185 100.256V96.416H103.025V100.256H99.185ZM108.913 100.256V96.416H112.753V100.256H108.913ZM113.777 100.256V96.416H117.617V100.256H113.777ZM94.321 100.256V96.416H98.161V100.256H94.321ZM74.865 100.256V96.416H78.705V100.256H74.865ZM94.321 105.12V101.28H98.161V105.12H94.321ZM99.185 105.12V101.28H103.025V105.12H99.185ZM104.049 105.12V101.28H107.889V105.12H104.049ZM108.913 105.12V101.28H112.753V105.12H108.913ZM113.777 105.12V101.28H117.617V105.12H113.777ZM118.641 105.12V101.28H122.481V105.12H118.641ZM89.457 105.12V101.28H93.297V105.12H89.457ZM74.865 105.12V101.28H78.705V105.12H74.865ZM79.729 105.12V101.28H83.569V105.12H79.729ZM113.777 109.984V106.144H117.617V109.984H113.777ZM118.641 109.984V106.144H122.481V109.984H118.641ZM84.593 109.984V106.144H88.433V109.984H84.593ZM74.865 109.984V106.144H78.705V109.984H74.865ZM123.505 109.984V106.144H127.345V109.984H123.505ZM79.729 109.984V106.144H83.569V109.984H79.729ZM74.865 114.848V111.008H78.705V114.848H74.865ZM79.729 114.848V111.008H83.569V114.848H79.729ZM118.641 114.848V111.008H122.481V114.848H118.641ZM123.505 114.848V111.008H127.345V114.848H123.505ZM79.729 119.712V115.872H83.569V119.712H79.729ZM123.505 119.712V115.872H127.345V119.712H123.505ZM74.865 119.712V115.872H78.705V119.712H74.865ZM118.641 119.712V115.872H122.481V119.712H118.641ZM118.641 124.576V120.736H122.481V124.576H118.641ZM79.729 124.576V120.736H83.569V124.576H79.729ZM123.505 124.576V120.736H127.345V124.576H123.505ZM74.865 124.576V120.736H78.705V124.576H74.865ZM79.729 129.44V125.6H83.569V129.44H79.729ZM74.865 129.44V125.6H78.705V129.44H74.865ZM118.641 129.44V125.6H122.481V129.44H118.641ZM123.505 129.44V125.6H127.345V129.44H123.505ZM79.729 134.304V130.464H83.569V134.304H79.729ZM74.865 134.304V130.464H78.705V134.304H74.865ZM118.641 134.304V130.464H122.481V134.304H118.641ZM123.505 134.304V130.464H127.345V134.304H123.505ZM123.505 139.168V135.328H127.345V139.168H123.505ZM118.641 139.168V135.328H122.481V139.168H118.641ZM79.729 139.168V135.328H83.569V139.168H79.729ZM74.865 139.168V135.328H78.705V139.168H74.865ZM74.865 144.032V140.192H78.705V144.032H74.865ZM118.641 144.032V140.192H122.481V144.032H118.641ZM123.505 144.032V140.192H127.345V144.032H123.505ZM79.729 144.032V140.192H83.569V144.032H79.729ZM74.865 148.896V145.056H78.705V148.896H74.865ZM79.729 148.896V145.056H83.569V148.896H79.729ZM123.505 148.896V145.056H127.345V148.896H123.505ZM118.641 148.896V145.056H122.481V148.896H118.641ZM118.641 153.76V149.92H122.481V153.76H118.641ZM123.505 153.76V149.92H127.345V153.76H123.505ZM74.865 153.76V149.92H78.705V153.76H74.865ZM79.729 153.76V149.92H83.569V153.76H79.729ZM123.505 158.624V154.784H127.345V158.624H123.505ZM118.641 158.624V154.784H122.481V158.624H118.641ZM79.729 158.624V154.784H83.569V158.624H79.729ZM74.865 158.624V154.784H78.705V158.624H74.865ZM79.729 163.488V159.648H83.569V163.488H79.729ZM118.641 163.488V159.648H122.481V163.488H118.641ZM123.505 163.488V159.648H127.345V163.488H123.505ZM74.865 163.488V159.648H78.705V163.488H74.865Z"
    fill="white"
  />
  <path
    d="M119.864 79V74.136H129.592V44.952H119.864V40.088H129.592V32.792H134.456V74.136H141.752V79H119.864ZM163.649 61.976V66.84H161.217V71.704H158.785V74.136H170.945V71.704H173.377V66.84H175.809V44.952H173.377V47.384H170.945V52.248H168.513V57.112H166.081V61.976H163.649ZM161.217 61.976V57.112H163.649V52.248H166.081V47.384H168.513V42.52H170.945V37.656H158.785V40.088H156.353V44.952H153.921V66.84H158.785V61.976H161.217ZM153.921 76.568V71.704H151.489V66.84H149.057V44.952H151.489V40.088H153.921V35.224H158.785V32.792H170.945V35.224H175.809V40.088H178.241V44.952H180.673V66.84H178.241V71.704H175.809V76.568H170.945V79H158.785V76.568H153.921Z"
    fill="white"
  />
</svg>
